<svg xmlns="http://www.w3.org/2000/svg" viewBox="0 0 300 300" width="300" height="300">
  <defs>
    <linearGradient id="g" x1="0%" y1="0%" x2="100%" y2="100%">
      <stop offset="0%" style="stop-color:#c8a45c"/>
      <stop offset="50%" style="stop-color:#d4b06a"/>
      <stop offset="100%" style="stop-color:#a8893c"/>
    </linearGradient>
    <linearGradient id="g2" x1="0%" y1="0%" x2="100%" y2="100%">
      <stop offset="0%" style="stop-color:#f5e6c8"/>
      <stop offset="100%" style="stop-color:#e8d5a8"/>
    </linearGradient>
  </defs>

  <!-- Outer ring -->
  <circle cx="150" cy="140" r="120" fill="none" stroke="url(#g)" stroke-width="6"/>
  <circle cx="150" cy="140" r="112" fill="none" stroke="url(#g)" stroke-width="1.5" opacity=".3"/>

  <!-- Inner circle -->
  <circle cx="150" cy="140" r="86" fill="none" stroke="url(#g)" stroke-width="2.5"/>

  <!-- Left grape leaf -->
  <g transform="translate(150,140) rotate(-25)">
    <path d="M-50,-20 C-60,-50 -30,-70 -10,-60 C-15,-75 5,-80 15,-65 C20,-80 45,-65 35,-45 C50,-50 55,-25 35,-15 C30,-5 10,5 0,0 Z" fill="url(#g2)" stroke="url(#g)" stroke-width="1.5"/>
    <line x1="0" y1="0" x2="-15" y2="-35" stroke="url(#g)" stroke-width="1.5" stroke-linecap="round"/>
  </g>

  <!-- Right grape leaf -->
  <g transform="translate(150,140) rotate(25) scale(-1,1)">
    <path d="M-50,-20 C-60,-50 -30,-70 -10,-60 C-15,-75 5,-80 15,-65 C20,-80 45,-65 35,-45 C50,-50 55,-25 35,-15 C30,-5 10,5 0,0 Z" fill="url(#g2)" stroke="url(#g)" stroke-width="1.5"/>
    <line x1="0" y1="0" x2="-15" y2="-35" stroke="url(#g)" stroke-width="1.5" stroke-linecap="round"/>
  </g>

  <!-- Grape cluster -->
  <g transform="translate(150,140)">
    <circle cx="0" cy="-85" r="5" fill="url(#g)" opacity=".9"/>
    <circle cx="-6" cy="-78" r="4.5" fill="url(#g)" opacity=".85"/>
    <circle cx="6" cy="-78" r="4.5" fill="url(#g)" opacity=".85"/>
    <circle cx="-10" cy="-72" r="4" fill="url(#g)" opacity=".8"/>
    <circle cx="10" cy="-72" r="4" fill="url(#g)" opacity=".8"/>
    <circle cx="0" cy="-72" r="4" fill="url(#g)" opacity=".8"/>
  </g>

  <!-- "4" in center -->
  <text x="150" y="145" font-family="'Times New Roman','Georgia',serif" font-size="72" font-weight="700" fill="#1a1a2e" text-anchor="middle" dominant-baseline="central">4</text>

  <!-- Top text -->
  <text x="150" y="58" font-family="'Inter','Helvetica Neue',sans-serif" font-size="11" font-weight="600" fill="#c8a45c" text-anchor="middle" letter-spacing="2.5">EST. 2026</text>

  <!-- Bottom text -->
  <text x="150" y="245" font-family="'Inter','Helvetica Neue',sans-serif" font-size="10" font-weight="500" fill="#888" text-anchor="middle" letter-spacing="3">BLACK DM</text>
</svg>